<?xml version="1.0" encoding="utf-8"?>
<svg width="933" height="695" viewBox="0 0 933 695" fill="none" stroke="none" version="1.1" xmlns:xlink="http://www.w3.org/1999/xlink" xmlns="http://www.w3.org/2000/svg">
  <defs>
    <linearGradient id="gradient_1" gradientUnits="userSpaceOnUse" x1="933" y1="147.747" x2="148.059" y2="147.747">
      <stop offset="0" stop-color="#CD8CF3" />
      <stop offset="0.713" stop-color="#406B8D" />
    </linearGradient>
    <linearGradient id="gradient_2" gradientUnits="userSpaceOnUse" x1="0" y1="150.804" x2="210.095" y2="150.804">
      <stop offset="0" stop-color="#4E71B6" />
      <stop offset="1" stop-color="#65D95C" />
    </linearGradient>
  </defs>
  <g id="g11216">
    <path id="path11200" d="M782.185 0L933 147.747L148.3 147.303L148.3 147.303L0 0L782.185 0Z" style="fill:url(#gradient_1);mix-blend-mode:normal;" transform="translate(0 547.253)" />
    <path id="Path" d="M0 47.5721L47.418 0L429.663 590.296L384.997 634.726L0 47.5721Z" style="fill:#7EB6E1;mix-blend-mode:normal;" transform="translate(40.391 59.831)" />
    <path id="path11208" d="M0 150.804L0 0L360.91 0L210.095 150.804L0 150.804Z" style="fill:url(#gradient_2);mix-blend-mode:normal;" transform="translate(572.09 0.081)" />
    <rect id="rect11212" width="13.426" height="150.804" style="fill:#000000;fill-rule:evenodd;fill-opacity:0.15;mix-blend-mode:normal;" transform="translate(572.09 0.081)" />
    <path id="Path" d="M0 150.877L147.65 0L147.65 547.58L0 694.556L0 150.877Z" style="fill:#4E71B6;fill-opacity:0.898;mix-blend-mode:normal;" transform="translate(425.387 0)" />
    <path id="Path" d="M0 147.626L148.3 0L148.3 694.556L0 554.185L0 147.626Z" style="fill:#7EB6E1;fill-opacity:0.898;mix-blend-mode:normal;" />
    <path id="path11206" d="M117.593 164.607L117.593 186.102L0 9.53662L9.60546 0L117.593 164.607Z" style="fill:#000000;fill-opacity:0.298;mix-blend-mode:normal;" transform="translate(30.786 107.398)" />
    <rect id="rect11214" width="16.911" height="146.975" style="fill:#000000;fill-rule:evenodd;fill-opacity:0.1;mix-blend-mode:normal;" transform="translate(148.3 547.58)" />
    <path id="Path" d="M0 46.1985L46.3977 0L431.458 586.603L380.726 637.978L0 46.1985Z" style="fill:#4E71B6;fill-opacity:0.898;mix-blend-mode:normal;" transform="translate(101.903 0)" />
  </g>
</svg>
