<?xml version="1.0" encoding="utf-8"?>
<svg width="933" height="695" viewBox="0 0 933 695" fill="none" stroke="none" version="1.1" xmlns:xlink="http://www.w3.org/1999/xlink" xmlns="http://www.w3.org/2000/svg">
  <defs>
    <path id="path_1" d="M933 0L933 0L933 695L0 695L0 0L933 0Z" />
    <rect id="rect_2" x="0" y="0" width="933" height="695" />
    <clipPath id="clip_path_3">
      <use xlink:href="#rect_2" />
    </clipPath>
    <linearGradient id="gradient_4" gradientUnits="userSpaceOnUse" x1="933" y1="-399.506" x2="148.059" y2="-399.506">
      <stop offset="0" stop-color="#CD8CF3" />
      <stop offset="0.713" stop-color="#406B8D" />
    </linearGradient>
    <linearGradient id="gradient_5" gradientUnits="userSpaceOnUse" x1="-33.09" y1="74.919" x2="180.455" y2="150.804">
      <stop offset="0" stop-color="#4D6EAF" />
      <stop offset="1" stop-color="#40C249" />
    </linearGradient>
  </defs>
  <g id="Frame" opacity="1" clip-path="url(#clip_path_3)">
    <g>
      <use xlink:href="#path_1" style="fill:#FFFFFF;fill-rule:evenodd;fill-opacity:0;mix-blend-mode:normal;" />
      <g>
        <g id="g11216">
          <path id="path11200" d="M782.185 0L933 147.747L148.3 147.303L148.3 147.303L0 0L782.185 0L782.185 0Z" style="fill:url(#gradient_4);mix-blend-mode:normal;" transform="translate(0 547.253)" />
          <path id="Path" d="M63.3636 0L489.923 545.442L425.39 609.923L0 62.865L63.3636 0Z" style="fill:#7EB6E1;mix-blend-mode:normal;" transform="translate(0 84.635)" />
          <path id="path11208" d="M0 150.804L0 0L360.91 0L210.095 150.804L0 150.804L0 150.804Z" style="fill:url(#gradient_5);mix-blend-mode:normal;" transform="translate(572.09 0.081)" />
          <rect id="rect11212" width="13.426" height="150.804" style="fill:#000000;fill-rule:evenodd;fill-opacity:0.3;mix-blend-mode:normal;" transform="translate(572.09 0.081)" />
          <path id="Path#1" d="M0 150.877L147.65 0L147.65 547.58L0 694.556L0 150.877L0 150.877Z" style="fill:#4E71B6;fill-opacity:0.949;mix-blend-mode:normal;" transform="translate(425.387 0)" />
          <path id="Path#3" d="M64.59 0L489.292 547.507L423.818 612.605L0 65.7401L64.59 0Z" style="fill:#4E71B6;mix-blend-mode:normal;" transform="translate(83.712 0)" />
          <path id="rect11214" d="M0 0L16.3827 20.6799L16.5808 170.798L0 149.242L0 0Z" style="fill:#000000;fill-rule:evenodd;fill-opacity:0.3;mix-blend-mode:normal;" transform="translate(409 524.417)" />
          <path id="rect11214" d="M5.38623 0L22.1505 14.0671L15.0645 200.642L0 188.374L5.38623 0Z" style="fill:#000000;fill-rule:evenodd;fill-opacity:0.3;mix-blend-mode:normal;" transform="matrix(0.766 -0.643 0.643 0.766 284.49 550.697)" />
          <path id="rect11214" d="M0 15.8766L15.3317 0L18.9845 209.273L3.66693 225.134L0 15.8766Z" style="fill:#000000;fill-rule:evenodd;fill-opacity:0.3;mix-blend-mode:normal;" transform="matrix(-0.695 -0.719 0.719 -0.695 435.65 706.029)" />
          <path id="rect11214" d="M0 0L16.3827 20.6799L16.5808 170.798L0 149.242L0 0Z" style="fill:#000000;fill-rule:evenodd;fill-opacity:0.3;mix-blend-mode:normal;" transform="translate(148 193)" />
          <path id="rect11214" d="M0 0L16.3827 20.6799L16.5808 170.798L0 149.242L0 0Z" style="fill:#000000;fill-rule:evenodd;fill-opacity:0.3;mix-blend-mode:normal;" transform="translate(148 0)" />
          <path id="rect11214" d="M0 0L16.3827 20.6799L16.5808 170.798L0 149.242L0 0Z" style="fill:#000000;fill-rule:evenodd;fill-opacity:0.3;mix-blend-mode:normal;" transform="translate(409 337)" />
          <rect id="rect11212" width="13" height="147.779" style="fill:#000000;fill-rule:evenodd;fill-opacity:0.3;mix-blend-mode:normal;" transform="translate(148 547.221)" />
          <path id="Path#2" d="M0 147.626L148.3 0L148.3 694.556L0 554.185L0 147.626L0 147.626Z" style="fill:#7EB6E1;fill-opacity:0.949;mix-blend-mode:normal;" />
        </g>
      </g>
    </g>
  </g>
</svg>
